#!OML:ASF F:\VICON\USERDATA\INSTALL\rory3\rory3.ASF
:FULLY-SPECIFIED
:DEGREES
35
root 0.19379385964876197 18.33068695497941 5.072993898903554 -2.751586288272032 -0.26685938124292363 -4.82461139291583
lfemur -18.65518770920943 2.680054052791356 -14.372653093372609
ltibia 63.97980404919703
lfoot -2.1620174175838547 0.7763752681361502
ltoes -3.062258551997182
rfemur -6.909919778190367 8.087587217858928 29.792425826256796
rtibia 17.78706510128871
rfoot -9.506408435563138 -3.81762558895771
rtoes 8.056329482290488
lowerback 10.249862602797196 0.48311775911045307 3.305178451261174
upperback 0.8119355297094456 1.2847207721019747 2.540438780811275
thorax -4.985080038306719 0.5975814266704819 0.7359148476824764
lowerneck -16.311841318457923 -2.5202158475910075 -2.8783433091550887
upperneck 21.1661336934768 -3.0341474491015634 0.40669741789829933
head 9.42639920994273 -1.5274914414459966 0.1541699253162723
lclavicle -2.795252819495008e-15 -4.1472937700213386e-16
lhumerus -29.9566525077775 -1.1108067399140644 84.84267578875297
lradius 26.530602860144523
lwrist 6.1480919142164705
lhand -27.84767727796097 23.17277462575913
lfingers 7.1250199999999975
lthumb -0.9559154768255262 53.271666924235596
rclavicle -2.796319240772207e-15 -4.1542158779791023e-16
rhumerus -26.50367068864596 -15.858213976776725 -81.46569559645918
rradius 26.087945225887147
rwrist 4.275719491808114
rhand -16.73512807185526 22.24438183219381
rfingers 7.1250199999999975
rthumb 9.42553759449607 -7.57550294936382
36
root 0.18463468614275985 18.262974497962283 6.293881484567938 -2.7756034994750416 -1.1404125697617173 -5.309227993814517
lfemur -22.640288809346597 3.076166169879842 -14.174887792629278
ltibia 60.1447657701576
lfoot -4.242637086126196 3.6228419286655376
ltoes -3.94191631782713
rfemur -5.013961094738229 7.935860356806548 30.598911165613533
rtibia 17.538079368108324
rfoot -11.97683887001533 -4.005058576007757
rtoes 6.690213273919954
lowerback 10.355523361404595 0.9101199600300374 4.089310844164083
upperback 0.805246384145349 1.9165992477996803 2.3929447104666113
thorax -5.059563779669456 0.884374180355693 0.08370027405900671
lowerneck -16.17955143355519 -2.565075079658141 -2.9254394519113216
upperneck 21.216585562241715 -3.104374082741521 0.48780227908934976
head 9.458838540934874 -1.5518546063620977 0.1693663297698794
lclavicle -2.7958221219714046e-15 -4.151081161596403e-16
lhumerus -31.676677805514043 -0.4011032311866094 84.81890149345139
lradius 25.900729445255354
lwrist 7.310334840395495
lhand -28.29347073168513 22.495164230846182
lfingers 7.1250199999999975
lthumb -1.4176478718121337 52.68011868181939
rclavicle -2.7963401759130465e-15 -4.1543557159778354e-16
rhumerus -25.518000888359747 -13.154207358005113 -82.11267231708736
rradius 27.78907164746341
rwrist 2.705158894088192
rhand -16.68997952493775 22.40877743093696
rfingers 7.1250199999999975
rthumb 9.292971047484627 -7.6761740151514815
37
root 0.19099836554950303 18.173565715783074 7.349663596241536 -2.437985034470975 -1.8506954523031873 -6.049226981287992
lfemur -25.20475810538517 2.9557313468287405 -13.745968595429483
ltibia 52.728194725847025
lfoot -5.493286266812199 5.334472043098531
ltoes -3.8028237280050576
rfemur -2.9419437482886384 7.8750101552802185 31.5038393413589
rtibia 16.960023185119873
rfoot -14.398281657513719 -3.910139932216305
rtoes 6.136337007138646
lowerback 10.346799669876466 1.2633501308238515 5.135317012672539
upperback 0.7950578986039324 2.521776834298069 2.360374420872329
thorax -5.033668092151381 1.1589794708213508 -0.5721083489171811
lowerneck -16.2306372020126 -2.6239016944428046 -3.030611673999278
upperneck 21.257970273791134 -3.18587954613553 0.6212697526391556
head 9.510325439514437 -1.5728892822596634 0.20132938052227733
lclavicle -2.795485659978361e-15 -4.1488081716875716e-16
lhumerus -33.21036434014779 0.4050949406667901 84.68312845421275
lradius 25.116970987478407
lwrist 7.337875617252269
lhand -28.66471578989837 22.037162951621156
lfingers 7.1250199999999975
lthumb -1.9186500786754634 52.14463631738124
rclavicle -2.7969250116009904e-15 -4.1582563696183445e-16
rhumerus -24.63060004786439 -11.1491788195836 -82.45722809139777
rradius 29.07438549444844
rwrist 1.7338950567507831
rhand -16.78597638563644 22.38743492027897
rfingers 7.1250199999999975
rthumb 9.083577443059216 -7.575511827150469
38
root 0.21382276632792585 18.143333471917856 8.253283048219167 -1.9884009640789155 -2.642640531219095 -6.302599307216052
lfemur -26.028023780119117 1.8263410935539865 -13.179084057528412
ltibia 41.21645093855585
lfoot -5.541228376482292 6.652004781445498
ltoes -3.4137785381441996
rfemur -0.7997543331111032 7.7864409076269245 31.79447890383562
rtibia 15.846972307232463
rfoot -15.887896473829551 -3.1803278513946824
rtoes 5.7418952265062675
lowerback 10.149295828825442 1.642565658010239 5.671113879314194
upperback 0.7483468816116499 3.0506502813086582 2.324549207578245
thorax -4.958334236164249 1.4182628509208652 -1.0540754492198308
lowerneck -16.354368274978874 -2.641105500111604 -3.037181783288351
upperneck 21.372318454573207 -3.212735020171015 0.6484003825032116
head 9.583626866088503 -1.5755203371255622 0.19201343786748232
lclavicle -2.7954866205807983e-15 -4.148825059404194e-16
lhumerus -34.51749093498442 1.3689886763377999 84.44857132964512
lradius 23.9412154999199
lwrist 6.7546241051621525
lhand -28.60109141555029 21.94933378049553
lfingers 7.1250199999999975
lthumb -1.9815026970089384 52.10352959867425
rclavicle -2.797939629831774e-15 -4.165023570343475e-16
rhumerus -23.875288177613907 -10.114980180057264 -82.5887010344104
rradius 29.721080631707103
rwrist 1.566670946667684
rhand -17.03616982785418 22.424104907381967
rfingers 7.1250199999999975
rthumb 8.865147874180538 -7.291092863070708
